<svg width="786" height="409" viewBox="0 0 786 409" fill="none" xmlns="http://www.w3.org/2000/svg">
<path d="M35.0807 151.81C33.949 144.379 32.063 138.717 29.4225 134.825C27.1592 130.578 24.1415 127.747 20.3694 126.332C16.5973 124.916 11.6936 124.208 5.65817 124.208H3.27949C1.59095 124.208 0.331724 122.652 0.683794 121.001V121.001C0.944951 119.776 2.02697 118.9 3.27949 118.9H109.467C110.944 118.9 112.201 119.975 112.43 121.434L140.323 298.843C142.209 309.106 143.718 319.014 144.849 328.568C146.358 337.769 147.49 346.616 148.244 355.109C149.315 362.807 150.216 370.031 150.949 376.78C151.02 377.436 151.574 377.933 152.233 377.933V377.933C152.577 377.933 152.908 377.795 153.15 377.551C173.358 357.163 190.772 337.473 205.392 318.483C220.48 299.374 231.985 280.619 239.907 262.218C248.205 243.816 252.355 225.769 252.355 208.076C252.355 191.09 248.017 178.881 239.341 171.45C231.464 164.061 218.32 160.178 199.908 159.803C198.252 159.769 196.897 158.427 196.965 156.772C197.435 145.357 200.621 135.741 206.523 127.924C212.936 119.077 223.686 114.654 238.775 114.654L341.307 118.787C342.894 118.85 344.156 120.14 344.186 121.727C344.545 140.536 344.904 158.703 345.264 176.227C345.641 194.275 345.829 211.614 345.829 228.246C346.207 244.878 346.395 260.979 346.395 276.549C346.772 291.766 346.961 306.805 346.961 321.668C346.961 335.807 346.782 349.778 346.424 363.581C346.408 364.174 346.885 364.663 347.478 364.663V364.663C347.858 364.663 348.208 364.46 348.395 364.129C354.73 352.934 361.796 340.196 369.594 325.914C377.515 311.052 385.625 295.305 393.924 278.673C402.223 261.687 410.521 244.347 418.82 226.654C427.119 208.96 434.851 191.444 442.018 174.104C449.279 157.076 455.841 140.867 461.704 125.478C462.122 124.381 463.139 123.627 464.31 123.549L522.892 119.623C524.495 119.516 525.899 120.69 526.063 122.288C527.06 132.058 527.902 144.022 528.588 158.18C529.343 173.75 530.097 190.736 530.852 209.137C531.606 227.538 532.172 246.647 532.549 266.464C532.926 285.927 533.115 305.036 533.115 323.791C533.483 341.727 533.671 358.318 533.68 373.565C533.681 374.219 534.211 374.748 534.865 374.748V374.748C535.192 374.748 535.506 374.612 535.73 374.373C557.457 351.161 576.011 329.701 591.394 309.99C606.86 289.82 618.553 270.357 626.475 251.602C634.773 232.847 638.923 214.091 638.923 195.336C638.923 181.181 635.528 170.565 628.738 163.488C622.679 156.467 611.401 152.604 594.903 151.901C593.271 151.832 591.952 150.499 592.019 148.867C592.484 137.589 595.67 129.016 601.579 123.147C608.369 116.777 617.045 113.592 627.606 113.592C640.809 113.592 650.616 117.485 657.029 125.27C658.691 127.175 660.149 129.282 661.404 131.59C662.981 134.49 668.852 134.324 669.557 131.1L686.982 51.4881C688.114 46.5339 689.057 41.7567 689.811 37.1564C690.565 32.2022 690.943 28.4865 690.943 26.0095C690.943 18.9321 688.679 13.801 684.153 10.6161C679.626 7.07741 671.893 5.30805 660.954 5.30805H652.352C650.663 5.30805 649.404 3.75205 649.756 2.10063V2.10063C650.017 0.875652 651.099 0 652.352 0H782.228C784.157 0 785.585 1.79524 785.151 3.67527L714.141 311.052C713.009 316.714 711.689 322.906 710.18 329.63C709.049 336 708.106 342.192 707.351 348.208C706.597 353.87 706.22 358.824 706.22 363.071C706.597 371.917 708.294 378.641 711.312 383.241C714.707 387.842 720.554 390.142 728.852 390.142C736.397 390.142 744.129 387.842 752.051 383.241C759.296 378.916 765.822 374.322 771.629 369.457C772.974 368.331 775.003 368.563 776.019 369.993V369.993C776.875 371.197 776.713 372.85 775.614 373.837C769.954 378.918 763.232 383.999 755.446 389.08C747.147 394.742 737.528 399.519 726.589 403.412C715.65 406.951 703.202 408.72 689.245 408.72C666.99 408.72 650.392 403.766 639.453 393.857C628.891 383.949 623.61 369.794 623.61 351.393C623.61 345.023 623.988 338.3 624.742 331.222C625.874 324.145 627.194 316.537 628.703 308.398C630.589 300.259 632.475 291.589 634.361 282.388L638.662 265.438C639.549 261.943 633.768 259.682 631.902 262.767C628.612 268.21 625.105 273.689 621.382 279.203C607.426 300.436 591.394 321.491 573.288 342.369C555.784 362.983 537.361 382.734 518.018 401.623C517.535 402.094 516.907 402.388 516.236 402.458L459.475 408.375C457.704 408.559 456.164 407.171 456.161 405.391C456.137 390.153 455.95 374.454 455.598 358.293C455.598 340.954 455.409 323.791 455.032 306.805C454.655 289.82 454.089 273.365 453.335 257.441C452.958 241.516 452.392 226.654 451.637 212.853C451.143 203.573 450.567 194.977 449.91 187.066C449.652 183.956 445.425 183.323 444.206 186.195C439.908 196.32 435.406 206.444 430.702 216.568C424.667 230.369 418.254 243.993 411.464 257.441C405.052 270.888 398.45 284.158 391.661 297.251C385.248 310.344 378.647 322.906 371.857 334.938C365.444 346.97 358.843 358.647 352.053 369.971C345.921 380.462 339.961 390.468 334.173 399.988C333.676 400.806 332.818 401.336 331.864 401.417L273.772 406.327C272.042 406.473 270.55 405.125 270.52 403.39L267.708 242.049C267.65 238.753 262.84 237.846 261.472 240.845C257.496 249.561 252.948 258.278 247.828 266.995C238.021 283.981 226.893 300.613 214.445 316.891C201.997 333.169 188.983 348.562 175.403 363.071C162.094 377.29 149.148 390.49 136.563 402.67C136.067 403.151 135.42 403.444 134.732 403.502L81.9565 407.958C80.4053 408.089 79.0117 407.011 78.7476 405.477L35.0807 151.81Z" fill="url(#paint0_radial_103_525)"/>
<defs>
<radialGradient id="paint0_radial_103_525" cx="0" cy="0" r="1" gradientUnits="userSpaceOnUse" gradientTransform="translate(9.75532 204.361) rotate(4.05176) scale(781.682 93983)">
<stop stop-color="#45454C"/>
<stop offset="1" stop-color="#9595A6"/>
</radialGradient>
</defs>
</svg>
