<svg width="1280" height="720" viewBox="0 0 1280 720" fill="none" xmlns="http://www.w3.org/2000/svg">
<rect width="1280" height="720" fill="#FF4500"/>
<path d="M989.751 328.833C989.751 339.375 981.204 347.93 970.654 347.93C960.112 347.93 951.565 339.375 951.565 328.833C951.565 318.29 960.112 309.738 970.654 309.738C981.204 309.738 989.751 318.29 989.751 328.833ZM662.778 367.02C675.769 367.02 686.811 376.981 690.909 390.884H634.649C638.747 376.981 649.787 367.02 662.778 367.02ZM699.124 409.981C708.423 409.981 713.832 403.029 713.435 396.192C713.218 392.575 712.9 390.33 712.474 388.498C706.772 363.794 686.689 345.543 662.778 345.543C634.436 345.543 611.467 371.187 611.467 402.82C611.467 434.455 634.438 460.103 662.778 460.103C680.529 460.103 693.208 453.637 702.439 443.501C706.935 438.565 706.104 430.809 700.618 426.996C696.162 423.897 690.525 424.945 686.379 428.441C682.421 431.781 674.862 438.62 662.778 438.62C648.346 438.62 636.304 426.318 633.545 409.981H699.124ZM612.658 356.642C612.657 354.101 611.755 351.643 610.112 349.705C608.468 347.767 606.191 346.475 603.685 346.059C588.044 343.699 573.431 349.542 564.925 360.111V358.664C564.925 352.105 559.555 347.926 554.187 347.926C552.776 347.926 551.38 348.204 550.077 348.743C548.774 349.283 547.59 350.073 546.592 351.071C545.595 352.068 544.804 353.252 544.264 354.555C543.724 355.857 543.447 357.254 543.447 358.664V446.553C543.447 452.3 547.782 457.345 553.522 457.697C554.986 457.787 556.452 457.576 557.831 457.078C559.21 456.579 560.473 455.804 561.541 454.799C562.609 453.795 563.46 452.582 564.042 451.236C564.624 449.89 564.924 448.439 564.925 446.973V401.638C564.925 381.574 580.01 365.102 600.717 367.341C601.423 367.416 602.135 367.414 602.84 367.333C605.518 367.104 608.012 365.878 609.83 363.899C611.648 361.919 612.657 359.329 612.658 356.642ZM981.398 368.215C981.398 365.367 980.267 362.636 978.253 360.622C976.239 358.608 973.508 357.477 970.66 357.477C967.812 357.477 965.081 358.608 963.067 360.622C961.053 362.636 959.922 365.367 959.922 368.215V446.973C959.922 449.821 961.053 452.552 963.067 454.566C965.081 456.58 967.812 457.711 970.66 457.711C973.508 457.711 976.239 456.58 978.253 454.566C980.267 452.552 981.398 449.821 981.398 446.973V368.215ZM772.565 438.62C756.085 438.62 742.731 422.593 742.731 402.82C742.731 383.048 756.085 367.021 772.565 367.021C789.045 367.021 802.398 383.048 802.398 402.822C802.398 422.593 789.045 438.62 772.565 438.62ZM821.489 308.548C821.489 305.7 820.358 302.968 818.345 300.953C816.331 298.938 813.6 297.806 810.751 297.804C807.903 297.806 805.172 298.938 803.158 300.953C801.144 302.968 800.013 305.7 800.013 308.548V356.506C792.737 349.238 783.458 345.538 772.563 345.538C744.225 345.538 721.253 371.187 721.253 402.822C721.253 434.455 744.225 460.098 772.565 460.098C783.56 460.098 792.776 456.316 800.209 448.993C800.678 451.446 801.987 453.659 803.911 455.251C805.835 456.843 808.254 457.715 810.751 457.717C813.6 457.715 816.332 456.582 818.345 454.567C820.359 452.552 821.49 449.82 821.489 446.971V308.548ZM884.738 438.62C868.258 438.62 854.905 422.593 854.905 402.82C854.905 383.048 868.258 367.021 884.738 367.021C901.218 367.021 914.571 383.048 914.571 402.822C914.571 422.593 901.218 438.62 884.738 438.62ZM933.663 308.548C933.663 305.7 932.532 302.968 930.518 300.953C928.504 298.938 925.773 297.806 922.925 297.804C920.076 297.806 917.345 298.938 915.331 300.953C913.318 302.968 912.187 305.7 912.187 308.548V356.506C904.91 349.238 895.631 345.538 884.738 345.538C856.396 345.538 833.427 371.187 833.427 402.822C833.427 434.455 856.398 460.098 884.738 460.098C895.734 460.098 904.951 456.316 912.382 448.993C912.852 451.446 914.161 453.659 916.085 455.251C918.009 456.843 920.427 457.715 922.925 457.717C925.773 457.715 928.505 456.582 930.519 454.567C932.532 452.552 933.663 449.82 933.663 446.971V308.548ZM1035.97 446.973V367.018H1045.51C1050.6 367.018 1055.03 363.182 1055.37 358.11C1055.45 356.806 1055.27 355.497 1054.83 354.266C1054.39 353.035 1053.7 351.907 1052.81 350.952C1051.92 349.997 1050.84 349.237 1049.64 348.716C1048.44 348.196 1047.14 347.928 1045.84 347.928H1035.96V332.779C1035.96 327.058 1031.65 322.068 1025.93 321.698C1024.47 321.6 1023 321.805 1021.61 322.3C1020.23 322.794 1018.96 323.568 1017.89 324.572C1016.81 325.577 1015.96 326.792 1015.37 328.141C1014.79 329.49 1014.49 330.945 1014.49 332.415V347.928H1005.59C1000.51 347.928 996.067 351.762 995.735 356.839C995.649 358.144 995.831 359.452 996.271 360.682C996.711 361.913 997.398 363.041 998.292 363.995C999.185 364.949 1000.26 365.71 1001.46 366.23C1002.66 366.75 1003.96 367.018 1005.26 367.018H1014.49V446.973C1014.49 449.821 1015.62 452.552 1017.63 454.566C1019.65 456.58 1022.38 457.711 1025.23 457.711C1028.07 457.711 1030.81 456.58 1032.82 454.566C1034.83 452.552 1035.97 449.821 1035.97 446.973ZM395.942 401.859C384.956 401.859 376.008 392.92 376.008 381.925C376.008 370.931 384.956 361.992 395.942 361.992C406.93 361.992 415.876 370.931 415.876 381.927C415.876 392.92 406.93 401.859 395.942 401.859ZM399.45 434.598C385.849 448.182 359.776 449.236 352.114 449.236C344.443 449.236 318.371 448.182 304.786 434.59C304.306 434.111 303.925 433.541 303.665 432.915C303.405 432.288 303.271 431.616 303.271 430.937C303.271 430.259 303.405 429.587 303.665 428.96C303.925 428.334 304.306 427.764 304.786 427.285C305.756 426.316 307.07 425.772 308.441 425.772C309.812 425.772 311.127 426.316 312.097 427.285C320.667 435.865 339.015 438.902 352.114 438.902C365.214 438.902 383.559 435.865 392.157 427.285C392.637 426.806 393.206 426.426 393.833 426.168C394.46 425.909 395.132 425.776 395.81 425.777C396.488 425.778 397.159 425.912 397.785 426.172C398.411 426.432 398.98 426.813 399.459 427.294C399.938 427.774 400.318 428.343 400.576 428.97C400.835 429.597 400.968 430.268 400.967 430.947C400.966 431.625 400.832 432.296 400.572 432.922C400.311 433.548 399.93 434.119 399.45 434.598ZM288.306 381.927C288.306 370.931 297.25 361.992 308.246 361.992C319.232 361.992 328.17 370.931 328.17 381.927C328.17 392.913 319.232 401.851 308.246 401.851C297.25 401.851 288.306 392.913 288.306 381.927ZM479.626 361.992C479.626 346.582 467.133 334.087 451.723 334.087C444.204 334.087 437.387 337.078 432.37 341.917C413.292 328.147 387.011 319.257 357.744 318.236L370.45 258.432L411.982 267.258C412.486 277.822 421.136 286.251 431.82 286.251C442.831 286.251 451.754 277.32 451.754 266.317C451.756 255.305 442.831 246.382 431.821 246.382C423.991 246.382 417.286 250.935 414.026 257.504L367.645 247.649C367.006 247.509 366.345 247.498 365.701 247.617C365.058 247.736 364.445 247.983 363.898 248.343C362.791 249.063 362.014 250.193 361.738 251.485L347.792 317.113C347.713 317.487 347.777 317.845 347.777 318.213C317.982 318.994 291.19 327.907 271.818 341.861C266.636 336.868 259.719 334.081 252.523 334.087C237.107 334.087 224.615 346.582 224.615 361.992C224.615 373.331 231.384 383.066 241.103 387.436C240.664 390.229 240.44 393.051 240.435 395.878C240.435 438.807 290.409 473.618 352.058 473.618C413.706 473.618 463.681 438.806 463.681 395.878C463.681 393.04 463.451 390.241 463.028 387.49C472.804 383.145 479.626 373.37 479.626 361.992Z" fill="white"/>
</svg>
