<svg width="1400" height="720" viewBox="0 0 1400 720" fill="none" xmlns="http://www.w3.org/2000/svg">
<rect width="1400" height="720" fill="#FF4500"/>
<path d="M1049.75 328.833C1049.75 339.375 1041.2 347.93 1030.65 347.93C1020.11 347.93 1011.56 339.375 1011.56 328.833C1011.56 318.29 1020.11 309.738 1030.65 309.738C1041.2 309.738 1049.75 318.29 1049.75 328.833ZM722.778 367.02C735.769 367.02 746.811 376.981 750.909 390.884H694.649C698.747 376.981 709.787 367.02 722.778 367.02ZM759.124 409.981C768.423 409.981 773.832 403.029 773.435 396.192C773.218 392.575 772.9 390.33 772.474 388.498C766.772 363.794 746.689 345.543 722.778 345.543C694.436 345.543 671.467 371.187 671.467 402.82C671.467 434.455 694.438 460.103 722.778 460.103C740.529 460.103 753.208 453.637 762.439 443.501C766.935 438.565 766.104 430.809 760.618 426.996C756.162 423.897 750.525 424.945 746.379 428.441C742.421 431.781 734.862 438.62 722.778 438.62C708.346 438.62 696.304 426.318 693.545 409.981H759.124ZM672.658 356.642C672.657 354.101 671.755 351.643 670.112 349.705C668.468 347.767 666.191 346.475 663.685 346.059C648.044 343.699 633.431 349.542 624.925 360.111V358.664C624.925 352.105 619.555 347.926 614.187 347.926C612.776 347.926 611.38 348.204 610.077 348.743C608.774 349.283 607.59 350.073 606.592 351.071C605.595 352.068 604.804 353.252 604.264 354.555C603.724 355.857 603.447 357.254 603.447 358.664V446.553C603.447 452.3 607.782 457.345 613.522 457.697C614.986 457.787 616.452 457.576 617.831 457.078C619.21 456.579 620.473 455.804 621.541 454.799C622.609 453.795 623.46 452.582 624.042 451.236C624.624 449.89 624.924 448.439 624.925 446.973V401.638C624.925 381.574 640.01 365.102 660.717 367.341C661.423 367.416 662.135 367.414 662.84 367.333C665.518 367.104 668.012 365.878 669.83 363.899C671.648 361.919 672.657 359.329 672.658 356.642ZM1041.4 368.215C1041.4 365.367 1040.27 362.636 1038.25 360.622C1036.24 358.608 1033.51 357.477 1030.66 357.477C1027.81 357.477 1025.08 358.608 1023.07 360.622C1021.05 362.636 1019.92 365.367 1019.92 368.215V446.973C1019.92 449.821 1021.05 452.552 1023.07 454.566C1025.08 456.58 1027.81 457.711 1030.66 457.711C1033.51 457.711 1036.24 456.58 1038.25 454.566C1040.27 452.552 1041.4 449.821 1041.4 446.973V368.215ZM832.565 438.62C816.085 438.62 802.731 422.593 802.731 402.82C802.731 383.048 816.085 367.021 832.565 367.021C849.045 367.021 862.398 383.048 862.398 402.822C862.398 422.593 849.045 438.62 832.565 438.62ZM881.489 308.548C881.489 305.7 880.358 302.968 878.345 300.953C876.331 298.938 873.6 297.806 870.751 297.804C867.903 297.806 865.172 298.938 863.158 300.953C861.144 302.968 860.013 305.7 860.013 308.548V356.506C852.737 349.238 843.458 345.538 832.563 345.538C804.225 345.538 781.253 371.187 781.253 402.822C781.253 434.455 804.225 460.098 832.565 460.098C843.56 460.098 852.776 456.316 860.209 448.993C860.678 451.446 861.987 453.659 863.911 455.251C865.835 456.843 868.254 457.715 870.751 457.717C873.6 457.715 876.332 456.582 878.345 454.567C880.359 452.552 881.49 449.82 881.489 446.971V308.548ZM944.738 438.62C928.258 438.62 914.905 422.593 914.905 402.82C914.905 383.048 928.258 367.021 944.738 367.021C961.218 367.021 974.571 383.048 974.571 402.822C974.571 422.593 961.218 438.62 944.738 438.62ZM993.663 308.548C993.663 305.7 992.532 302.968 990.518 300.953C988.504 298.938 985.773 297.806 982.925 297.804C980.076 297.806 977.345 298.938 975.331 300.953C973.318 302.968 972.187 305.7 972.187 308.548V356.506C964.91 349.238 955.631 345.538 944.738 345.538C916.396 345.538 893.427 371.187 893.427 402.822C893.427 434.455 916.398 460.098 944.738 460.098C955.734 460.098 964.951 456.316 972.382 448.993C972.852 451.446 974.161 453.659 976.085 455.251C978.009 456.843 980.427 457.715 982.925 457.717C985.773 457.715 988.505 456.582 990.519 454.567C992.532 452.552 993.663 449.82 993.663 446.971V308.548ZM1095.97 446.973V367.018H1105.51C1110.6 367.018 1115.03 363.182 1115.37 358.11C1115.45 356.806 1115.27 355.497 1114.83 354.266C1114.39 353.035 1113.7 351.907 1112.81 350.952C1111.92 349.997 1110.84 349.237 1109.64 348.716C1108.44 348.196 1107.14 347.928 1105.84 347.928H1095.96V332.779C1095.96 327.058 1091.65 322.068 1085.93 321.698C1084.47 321.6 1083 321.805 1081.61 322.3C1080.23 322.794 1078.96 323.568 1077.89 324.572C1076.81 325.577 1075.96 326.792 1075.37 328.141C1074.79 329.49 1074.49 330.945 1074.49 332.415V347.928H1065.59C1060.51 347.928 1056.07 351.762 1055.74 356.839C1055.65 358.144 1055.83 359.452 1056.27 360.682C1056.71 361.913 1057.4 363.041 1058.29 363.995C1059.18 364.949 1060.26 365.71 1061.46 366.23C1062.66 366.75 1063.96 367.018 1065.26 367.018H1074.49V446.973C1074.49 449.821 1075.62 452.552 1077.63 454.566C1079.65 456.58 1082.38 457.711 1085.23 457.711C1088.07 457.711 1090.81 456.58 1092.82 454.566C1094.83 452.552 1095.97 449.821 1095.97 446.973ZM455.942 401.859C444.956 401.859 436.008 392.92 436.008 381.925C436.008 370.931 444.956 361.992 455.942 361.992C466.93 361.992 475.876 370.931 475.876 381.927C475.876 392.92 466.93 401.859 455.942 401.859ZM459.45 434.598C445.849 448.182 419.776 449.236 412.114 449.236C404.443 449.236 378.371 448.182 364.786 434.59C364.306 434.111 363.925 433.541 363.665 432.915C363.405 432.288 363.271 431.616 363.271 430.937C363.271 430.259 363.405 429.587 363.665 428.96C363.925 428.334 364.306 427.764 364.786 427.285C365.756 426.316 367.07 425.772 368.441 425.772C369.812 425.772 371.127 426.316 372.097 427.285C380.667 435.865 399.015 438.902 412.114 438.902C425.214 438.902 443.559 435.865 452.157 427.285C452.637 426.806 453.206 426.426 453.833 426.168C454.46 425.909 455.132 425.776 455.81 425.777C456.488 425.778 457.159 425.912 457.785 426.172C458.411 426.432 458.98 426.813 459.459 427.294C459.938 427.774 460.318 428.343 460.576 428.97C460.835 429.597 460.968 430.268 460.967 430.947C460.966 431.625 460.832 432.296 460.572 432.922C460.311 433.548 459.93 434.119 459.45 434.598ZM348.306 381.927C348.306 370.931 357.25 361.992 368.246 361.992C379.232 361.992 388.17 370.931 388.17 381.927C388.17 392.913 379.232 401.851 368.246 401.851C357.25 401.851 348.306 392.913 348.306 381.927ZM539.626 361.992C539.626 346.582 527.133 334.087 511.723 334.087C504.204 334.087 497.387 337.078 492.37 341.917C473.292 328.147 447.011 319.257 417.744 318.236L430.45 258.432L471.982 267.258C472.486 277.822 481.136 286.251 491.82 286.251C502.831 286.251 511.754 277.32 511.754 266.317C511.756 255.305 502.831 246.382 491.821 246.382C483.991 246.382 477.286 250.935 474.026 257.504L427.645 247.649C427.006 247.509 426.345 247.498 425.701 247.617C425.058 247.736 424.445 247.983 423.898 248.343C422.791 249.063 422.014 250.193 421.738 251.485L407.792 317.113C407.713 317.487 407.777 317.845 407.777 318.213C377.982 318.994 351.19 327.907 331.818 341.861C326.636 336.868 319.719 334.081 312.523 334.087C297.107 334.087 284.615 346.582 284.615 361.992C284.615 373.331 291.384 383.066 301.103 387.436C300.664 390.229 300.44 393.051 300.435 395.878C300.435 438.807 350.409 473.618 412.058 473.618C473.706 473.618 523.681 438.806 523.681 395.878C523.681 393.04 523.451 390.241 523.028 387.49C532.804 383.145 539.626 373.37 539.626 361.992Z" fill="white"/>
</svg>
